<?xml version="1.0" encoding="UTF-8"?>
<svg version="1.1" xmlns="http://www.w3.org/2000/svg" width="500" height="500">
<path d="M0 0 C0 0.66 0 1.32 0 2 C0.515625 2.0825 1.03125 2.165 1.5625 2.25 C14.69966378 6.29220424 24.73022905 18.95331106 31.37890625 30.3671875 C32.32171526 32.21105751 33.1681877 34.10346796 34 36 C34.37125 36.804375 34.7425 37.60875 35.125 38.4375 C37.30300935 44.81595596 38.11011355 50.54255105 38.0546875 57.31640625 C38.04679199 58.5701001 38.03889648 59.82379395 38.03076172 61.11547852 C38.02061035 62.06737061 38.01045898 63.0192627 38 64 C38.60419769 63.99111755 39.20839539 63.98223511 39.8309021 63.9730835 C46.15816726 63.88412083 52.48525277 63.82406399 58.81298828 63.78027344 C61.16983261 63.76024268 63.52662778 63.73301008 65.88330078 63.69824219 C69.28430362 63.64934828 72.6846455 63.62694498 76.0859375 63.609375 C77.12801361 63.58872986 78.17008972 63.56808472 79.2437439 63.54681396 C87.28013177 63.54438666 94.00013175 65.16253758 100.62109375 69.859375 C101.22050781 70.48328125 101.81992187 71.1071875 102.4375 71.75 C103.05496094 72.36359375 103.67242187 72.9771875 104.30859375 73.609375 C109.7965707 81.36605373 109.6775448 89.94445358 110.125 99.125 C110.26845706 101.79457651 110.41922765 104.46364684 110.5703125 107.1328125 C110.62977051 108.30730957 110.68922852 109.48180664 110.75048828 110.69189453 C110.98859495 113.8487882 111.45676264 116.88354727 112 120 C112.24374029 123.38866711 112.43536116 126.77331433 112.60546875 130.16601562 C112.76099749 132.98966676 112.94535158 135.72845243 113.50390625 138.50390625 C114.18724336 141.94211423 114.28568603 145.38211685 114.4375 148.875 C114.80890119 156.36833366 115.35505862 163.83782525 116 171.3125 C116.12459595 172.78855713 116.12459595 172.78855713 116.25170898 174.29443359 C116.33364502 175.22465332 116.41558105 176.15487305 116.5 177.11328125 C116.5721875 177.93610596 116.644375 178.75893066 116.71875 179.60668945 C117.01271207 182.10817394 117.50441608 184.53162052 118 187 C118.15336416 189.394185 118.2740245 191.79053394 118.375 194.1875 C118.72664029 201.15178489 119.44753982 208.02007252 120.3125 214.9375 C122.16688332 230.06335968 123.26884593 245.24534254 124.4375 260.4362793 C125.26001708 271.06790322 126.13064942 281.6888534 127.1796875 292.30078125 C127.32299248 293.76371864 127.32299248 293.76371864 127.4691925 295.25621033 C127.92041737 299.8456565 128.38435818 304.43324127 128.86889648 309.01928711 C130.49293159 324.95947341 131.20623141 340.01057593 120.6328125 353.1875 C112.35529399 362.3759416 103.65868395 366.32785076 91.37959385 367.18235445 C88.709079 367.25467843 86.04559701 367.26690085 83.37414551 367.25396729 C81.85873318 367.25864726 81.85873318 367.25864726 80.31270647 367.26342177 C76.95906101 367.27133942 73.60559964 367.26510257 70.25195312 367.25878906 C67.83471064 367.26150169 65.41746898 367.26506415 63.00022888 367.26940918 C57.13523265 367.27756035 51.27028347 367.27639742 45.40528858 367.2705839 C40.63542758 367.26605306 35.86558092 367.26546063 31.09571838 367.26763153 C30.4148705 367.267938 29.73402261 367.26824446 29.03254297 367.26856022 C27.64908389 367.26919972 26.26562481 367.26984814 24.88216573 367.2705054 C11.93269707 367.27619807 -1.0167432 367.26966753 -13.96620721 367.25890467 C-25.05902865 367.24997012 -36.15180822 367.25152246 -47.24462891 367.26074219 C-60.15017971 367.27146365 -73.05570568 367.27564884 -85.96126032 367.26951766 C-87.339413 367.26888061 -88.71756569 367.26825187 -90.09571838 367.26763153 C-90.77366092 367.26732298 -91.45160346 367.26701443 -92.15008971 367.26669653 C-96.90999735 367.26497521 -101.66988913 367.2678725 -106.42979431 367.27259064 C-112.84518067 367.27881041 -119.26050677 367.27433388 -125.67588615 367.26280212 C-128.02560737 367.26016527 -130.37533526 367.26090392 -132.72505379 367.26532745 C-135.94150622 367.27082285 -139.15770883 367.26390045 -142.37414551 367.25396729 C-143.29566516 367.25842873 -144.21718482 367.26289017 -145.16662931 367.26748681 C-153.41802812 367.21833283 -162.06741025 366.55204268 -169.4375 362.5625 C-170.21996094 362.15128906 -171.00242187 361.74007813 -171.80859375 361.31640625 C-174.01034732 359.99378423 -176.04583982 358.66927123 -178 357 C-178 356.34 -178 355.68 -178 355 C-178.66 355 -179.32 355 -180 355 C-181.65625 352.5859375 -181.65625 352.5859375 -183.5 349.375 C-184.41265625 347.80878906 -184.41265625 347.80878906 -185.34375 346.2109375 C-191.90253657 333.4955541 -189.98315575 319.17367831 -188.671875 305.43359375 C-188.51966716 303.74871379 -188.36850831 302.06373879 -188.21832275 300.37867737 C-187.82148313 295.95499151 -187.41166674 291.53260865 -186.99859619 287.1104126 C-186.59238859 282.74285807 -186.19655573 278.37436975 -185.80078125 274.00585938 C-185.72304285 273.14804934 -185.64530445 272.2902393 -185.56521034 271.40643501 C-185.40834283 269.67546151 -185.25151103 267.94448478 -185.09471512 266.21350479 C-184.85951292 263.62261299 -184.62278822 261.03186367 -184.38583374 258.44113159 C-182.97178787 242.93633017 -181.70241766 227.42111483 -180.47131157 211.90085125 C-179.95744816 205.43236266 -179.41972489 198.96595302 -178.875 192.5 C-178.79540039 191.55120972 -178.71580078 190.60241943 -178.63378906 189.62487793 C-178.37097066 186.52654446 -178.1057428 183.51214238 -177.4765625 180.46484375 C-176.74699548 176.69142745 -176.66901344 172.89660116 -176.5 169.0625 C-176.27341203 163.94748648 -175.84359947 159.0550062 -175 154 C-174.76877197 151.00295641 -174.63378772 148.002791 -174.5 145 C-174.27303898 139.90598611 -173.8390776 135.03446559 -173 130 C-172.7687993 127.0029539 -172.63378774 124.00279154 -172.5 121 C-172.1348808 112.80510247 -172.1348808 112.80510247 -171.49609375 108.9921875 C-170.71718251 104.29418741 -170.64677119 99.56269839 -170.48242188 94.80859375 C-170.0513502 85.22741583 -168.02050867 76.52419334 -160.8125 69.75 C-153.35998844 63.95133577 -145.33003415 63.57179719 -136.18359375 63.70703125 C-135.08652603 63.71127609 -133.98945831 63.71552094 -132.85914612 63.71989441 C-129.38500522 63.73657073 -125.91146301 63.77420283 -122.4375 63.8125 C-120.06966989 63.82756109 -117.7018306 63.84124699 -115.33398438 63.85351562 C-109.55578831 63.88643798 -103.77793695 63.93652622 -98 64 C-98.00933563 63.18337387 -98.01867126 62.36674774 -98.02828979 61.52537537 C-98.03555084 60.45022171 -98.04281189 59.37506805 -98.05029297 58.26733398 C-98.0596286 57.20320786 -98.06896423 56.13908173 -98.07858276 55.04270935 C-97.97605549 51.07287339 -97.23969568 47.87443375 -96.125 44.0625 C-95.77695313 42.83660156 -95.42890625 41.61070313 -95.0703125 40.34765625 C-94.15984005 37.49993769 -93.15999444 34.75368049 -92 32 C-91.34 32 -90.68 32 -90 32 C-89.9175 31.484375 -89.835 30.96875 -89.75 30.4375 C-85.43211963 16.40438881 -72.39617802 7.51766786 -60.25 0.6875 C-41.45492154 -9.19498895 -19.26540814 -7.81235055 0 0 Z M-69.625 30.625 C-77.71562123 40.80707434 -79 51.41025394 -79 64 C-46.66 64 -14.32 64 19 64 C19 50.79673753 17.01958347 43.18262542 11 32 C10.34 32 9.68 32 9 32 C8.73960937 31.40960938 8.47921875 30.81921875 8.2109375 30.2109375 C3.61638822 21.82217979 -6.65734841 17.30943237 -15.2421875 14.18359375 C-35.98170477 8.5878372 -55.09277611 16.09277611 -69.625 30.625 Z M-108 120 C-110.07943553 124.56393225 -110.28479026 128.9247267 -110.25396729 133.85632324 C-110.25708727 134.62900779 -110.26020725 135.40169234 -110.26342177 136.19779158 C-110.27137492 138.77712181 -110.26508865 141.35621504 -110.25878906 143.93554688 C-110.26150012 145.78874346 -110.26506169 147.64193897 -110.26940918 149.49513245 C-110.27852182 154.52190611 -110.27499354 159.54859761 -110.26865101 164.5753727 C-110.26358522 169.83764491 -110.26828408 175.09991012 -110.27142334 180.36218262 C-110.27506129 189.19898745 -110.27026836 198.03575884 -110.26074219 206.87255859 C-110.24985798 217.08703717 -110.25338367 227.30143589 -110.264395 237.51591253 C-110.27347273 246.28803614 -110.27475076 255.06013573 -110.26951766 263.83226252 C-110.26640064 269.07051559 -110.26598128 274.30873115 -110.27259064 279.54698181 C-110.27837051 284.471773 -110.27435538 289.3964613 -110.26280212 294.32124138 C-110.26015899 296.12801378 -110.26091473 297.93479485 -110.26532745 299.7415638 C-110.27079798 302.20905144 -110.26393054 304.67621003 -110.25396729 307.14367676 C-110.25842873 307.85749622 -110.26289017 308.57131568 -110.26748681 309.30676603 C-110.23418781 313.56281082 -109.69017888 317.0813679 -108 321 C-105.73846788 322.13076606 -104.47576351 322.13773387 -101.96508789 322.16113281 C-101.13405045 322.17074036 -100.303013 322.1803479 -99.4467926 322.19024658 C-98.54782761 322.19449646 -97.64886261 322.19874634 -96.72265625 322.203125 C-95.33922279 322.21167511 -95.33922279 322.21167511 -93.92784119 322.22039795 C-91.97509918 322.22985248 -90.02234118 322.23638372 -88.06958008 322.24023438 C-85.07800603 322.24994964 -82.08711611 322.28097255 -79.09570312 322.3125 C-77.20052492 322.31902899 -75.3053418 322.32427987 -73.41015625 322.328125 C-72.51321548 322.3404718 -71.61627472 322.3528186 -70.69215393 322.36553955 C-69.85796432 322.36253845 -69.02377472 322.35953735 -68.16430664 322.35644531 C-67.4308754 322.36009094 -66.69744415 322.36373657 -65.94178772 322.36749268 C-63.44207647 321.89441029 -62.5833265 320.948681 -61 319 C-59.67797018 316.35594036 -59.86082051 314.34961487 -59.84228516 311.38867188 C-59.83202301 310.21405396 -59.82176086 309.03943604 -59.81118774 307.82922363 C-59.80388641 306.55526733 -59.79658508 305.28131104 -59.7890625 303.96875 C-59.76818638 301.9798419 -59.74729309 299.9909338 -59.72536278 298.00203705 C-59.6720896 293.08427221 -59.62790895 288.16650234 -59.59863281 283.24853516 C-59.58177509 280.49110701 -59.55712648 277.73396244 -59.52377319 274.97668457 C-59.49263967 272.3748319 -59.47334924 269.77280682 -59.46670532 267.17077637 C-59.45013885 265.99615845 -59.43357239 264.82154053 -59.41650391 263.61132812 C-59.40841705 262.5736731 -59.4003302 261.53601807 -59.39199829 260.46691895 C-59.26263885 259.65283569 -59.13327942 258.83875244 -59 258 C-55.70424441 255.8028296 -54.66409878 255.73959126 -50.8293457 255.69702148 C-49.77427322 255.68037949 -48.71920074 255.66373749 -47.63215637 255.64659119 C-46.49155258 255.63817703 -45.35094879 255.62976288 -44.17578125 255.62109375 C-43.00041306 255.60409927 -41.82504486 255.5871048 -40.61405945 255.56959534 C-36.84692804 255.51638149 -33.07980657 255.47616983 -29.3125 255.4375 C-25.56310579 255.39344612 -21.81379335 255.34655859 -18.0644989 255.29469299 C-15.73058698 255.26297614 -13.39660421 255.23601368 -11.06257629 255.21446228 C0.22111892 255.18670646 0.22111892 255.18670646 10.90234375 251.9375 C13.63185765 250.71760552 16.43621801 249.75990522 19.25 248.75 C25.64708958 246.31124858 31.62141867 243.27915188 37 239 C37 238.34 37 237.68 37 237 C37.56847656 236.7834375 38.13695312 236.566875 38.72265625 236.34375 C48.79266002 230.40192959 54.61581533 215.48940523 57.421875 204.73828125 C61.82020447 183.90565315 58.17545985 164.03639613 47.3671875 145.8359375 C46.91601562 145.23007813 46.46484375 144.62421875 46 144 C45.34 144 44.68 144 44 144 C43.7525 143.41992188 43.505 142.83984375 43.25 142.2421875 C36.7799548 130.63654392 21.38236694 124.84401735 9.5 120.8125 C1.64879219 118.98989819 -6.33099333 118.85262412 -14.35913086 118.87060547 C-15.34088287 118.86885315 -16.32263489 118.86710083 -17.33413696 118.86529541 C-20.5443911 118.86093205 -23.75458916 118.86379369 -26.96484375 118.8671875 C-29.20780956 118.86651325 -31.45077529 118.86554222 -33.69374084 118.86428833 C-38.37631939 118.86281917 -43.05887877 118.86494216 -47.74145508 118.86962891 C-53.74946317 118.87534887 -59.75742681 118.87202796 -65.76543331 118.86605644 C-70.38841591 118.86244939 -75.01138789 118.86358968 -79.6343708 118.86618423 C-81.85080534 118.86685191 -84.06724083 118.86603063 -86.28367424 118.86370468 C-89.37135263 118.86117333 -92.45895794 118.86502458 -95.54663086 118.87060547 C-96.46455917 118.86858124 -97.38248749 118.86655701 -98.32823181 118.86447144 C-99.16773376 118.86729126 -100.00723572 118.87011108 -100.87217712 118.87301636 C-101.60123229 118.87339338 -102.33028746 118.87377041 -103.0814352 118.87415886 C-105.22191262 118.933161 -105.22191262 118.933161 -108 120 Z " fill="#F5660E" transform="translate(280,65)"/>
<path d="M0 0 C0 0.66 0 1.32 0 2 C0.515625 2.0825 1.03125 2.165 1.5625 2.25 C14.69966378 6.29220424 24.73022905 18.95331106 31.37890625 30.3671875 C32.32171526 32.21105751 33.1681877 34.10346796 34 36 C34.391875 36.78375 34.78375 37.5675 35.1875 38.375 C37.86733153 47.03291724 37.1224094 56.67545726 37.0625 65.625 C37.05798828 66.91535156 37.05347656 68.20570313 37.04882812 69.53515625 C37.03714295 72.69015375 37.02076044 75.84505137 37 79 C37.99 79.33 38.98 79.66 40 80 C43.0139268 84.51070801 42.85107341 89.80551744 42 95 C39.65204606 99.29950008 36.52655471 102.13561444 32 104 C27.36651569 104.44840171 24.98089223 104.45271949 20.75 102.5 C16.27740738 98.43400671 14.32320827 94.34325999 13.5 88.375 C14.1397919 84.0564047 15.90854288 81.09145712 19 78 C19.15806531 76.07521187 19.251135 74.1450079 19.31640625 72.21484375 C19.35830078 71.04501953 19.40019531 69.87519531 19.44335938 68.66992188 C19.48267578 67.43822266 19.52199219 66.20652344 19.5625 64.9375 C19.60568359 63.70193359 19.64886719 62.46636719 19.69335938 61.19335938 C19.79984198 58.12902665 19.90185424 55.06460927 20 52 C19.34 52 18.68 52 18 52 C17.82984375 51.3709375 17.6596875 50.741875 17.484375 50.09375 C15.85143901 44.32635905 13.75260283 39.31537099 11 34 C11 33.34 11 32.68 11 32 C10.34 32 9.68 32 9 32 C8.195625 30.989375 7.39125 29.97875 6.5625 28.9375 C-0.62364387 20.29660018 -11.11828022 15.80570023 -22 14 C-35.3894459 13.18757154 -50.32525867 14.36910721 -60.8828125 23.65625 C-62.27654132 25.08364377 -63.64121334 26.53930434 -65 28 C-65.66 28 -66.32 28 -67 28 C-67.66 29.32 -68.32 30.64 -69 32 C-69.66 32 -70.32 32 -71 32 C-71.226875 32.78375 -71.45375 33.5675 -71.6875 34.375 C-73.11758838 38.32476791 -74.9292625 41.91865438 -76.87890625 45.6328125 C-79.78218975 51.76309055 -79.25793787 58.21841972 -79.3125 64.875 C-79.35600586 66.63263672 -79.35600586 66.63263672 -79.40039062 68.42578125 C-79.44931146 75.05643543 -79.28966356 78.88856181 -75 84 C-73.64921311 88.01545393 -73.72591044 91.17773132 -75.0625 95.1875 C-77.71339431 99.03557238 -80.76787706 101.88393853 -85 104 C-91.10685229 104.50890436 -94.12959772 104.0775461 -99 100 C-102.33069792 96.32474712 -102.86303149 93.47925994 -103.3125 88.625 C-102.92131633 84.08726945 -101.22031074 81.22031074 -98 78 C-97.88989751 75.93439393 -97.84403634 73.86531843 -97.82421875 71.796875 C-97.80037109 70.50523437 -97.77652344 69.21359375 -97.75195312 67.8828125 C-97.70608177 65.17415719 -97.67808437 62.46696331 -97.65820312 59.7578125 C-97.46959982 50.86275447 -96.0646156 43.34585149 -93 35 C-92.67 34.01 -92.34 33.02 -92 32 C-91.34 32 -90.68 32 -90 32 C-89.9175 31.484375 -89.835 30.96875 -89.75 30.4375 C-85.43211963 16.40438881 -72.39617802 7.51766786 -60.25 0.6875 C-41.45492154 -9.19498895 -19.26540814 -7.81235055 0 0 Z " fill="#454646" transform="translate(280,65)"/>
<path d="M0 0 C0.89167877 -0.01260864 1.78335754 -0.02521729 2.70205688 -0.03820801 C3.66453339 -0.03011108 4.62700989 -0.02201416 5.61865234 -0.01367188 C6.61408051 -0.01749878 7.60950867 -0.02132568 8.63510132 -0.02526855 C10.74502572 -0.0279925 12.85498361 -0.02059767 14.96484375 -0.00390625 C18.17184391 0.01736097 21.37656895 -0.00362171 24.58349609 -0.02929688 C26.63688641 -0.02665104 28.69027532 -0.02152078 30.74365234 -0.01367188 C32.16914902 -0.02581726 32.16914902 -0.02581726 33.6234436 -0.03820801 C42.56537974 0.08560783 49.49469861 2.86929316 56.07958984 8.95117188 C62.9946531 16.17237074 64.04770563 23.61280856 63.90380859 33.22070312 C63.26628552 39.70346788 60.85168831 45.57270824 56.57958984 50.51757812 C55.91958984 50.51757812 55.25958984 50.51757812 54.57958984 50.51757812 C54.57958984 51.17757812 54.57958984 51.83757812 54.57958984 52.51757812 C53.16630856 53.33595255 51.74880639 54.14704032 50.32958984 54.95507812 C49.54068359 55.40753906 48.75177734 55.86 47.93896484 56.32617188 C44.26058163 58.1836336 41.04698996 58.64371423 36.95043945 58.67871094 C36.03947006 58.68831848 35.12850067 58.69792603 34.18992615 58.70782471 C32.72571983 58.71419952 32.72571983 58.71419952 31.23193359 58.72070312 C29.71956871 58.72925323 29.71956871 58.72925323 28.176651 58.73797607 C26.04754686 58.74741216 23.9184282 58.75395452 21.78930664 58.7578125 C18.52578576 58.76755217 15.26288577 58.79860259 11.99951172 58.83007812 C9.93115608 58.83660509 7.86279595 58.84185676 5.79443359 58.84570312 C4.32719093 58.86422333 4.32719093 58.86422333 2.83030701 58.88311768 C1.92248978 58.88011658 1.01467255 58.87711548 0.0793457 58.87402344 C-0.7191127 58.87766907 -1.51757111 58.8813147 -2.34022522 58.8850708 C-4.42041016 58.51757812 -4.42041016 58.51757812 -6.17738342 57.30522156 C-7.82141892 54.94087236 -7.80087434 53.42851929 -7.80859375 50.55883789 C-7.81805023 49.5509169 -7.82750671 48.54299591 -7.83724976 47.50453186 C-7.83117706 46.41700119 -7.82510437 45.32947052 -7.81884766 44.20898438 C-7.82171783 43.09071762 -7.82458801 41.97245087 -7.82754517 40.82029724 C-7.82958779 38.45400486 -7.82404418 36.08769568 -7.81152344 33.72143555 C-7.7954884 30.09776018 -7.81135853 26.47520282 -7.83056641 22.8515625 C-7.82858372 20.55403399 -7.82473951 18.25650618 -7.81884766 15.95898438 C-7.82492035 14.87347794 -7.83099304 13.7879715 -7.83724976 12.66957092 C-7.82779327 11.65849777 -7.81833679 10.64742462 -7.80859375 9.60571289 C-7.80620697 8.71763443 -7.80382019 7.82955597 -7.80136108 6.91456604 C-7.02380482 2.02209086 -4.88940077 0.01986258 0 0 Z " fill="#F6660E" transform="translate(227.42041015625,222.482421875)"/>
<path d="M0 0 C1.65 0 3.3 0 5 0 C-0.06771748 6.66804932 -5.97104164 12.19114826 -14.5038538 13.56355572 C-19.56604209 14.13912673 -24.60648866 14.14813399 -29.69615173 14.14717102 C-31.27721446 14.15268605 -31.27721446 14.15268605 -32.89021784 14.1583125 C-36.40980845 14.169295 -39.92936948 14.17318384 -43.44897461 14.17700195 C-45.9773925 14.18327044 -48.50580948 14.18991759 -51.03422546 14.19691467 C-58.60830216 14.21609126 -66.18237364 14.22673207 -73.75646839 14.23564246 C-77.32815613 14.24003457 -80.89984241 14.24539868 -84.47152901 14.25063133 C-96.35028621 14.26763006 -108.22904253 14.28212564 -120.10781002 14.28938007 C-123.18474771 14.29128975 -126.26168539 14.29321013 -129.33862305 14.29516602 C-130.48566375 14.29589163 -130.48566375 14.29589163 -131.655877 14.2966319 C-144.05213218 14.30493799 -156.44829106 14.33029072 -168.84450417 14.36274669 C-181.58569264 14.39583299 -194.32683214 14.41382993 -207.0680638 14.41702431 C-214.21623795 14.4191871 -221.36427131 14.42790267 -228.51240349 14.45348549 C-235.23395345 14.47748743 -241.95520632 14.48100849 -248.6768055 14.47072411 C-251.14186572 14.47022817 -253.60693833 14.47656543 -256.07196045 14.49028015 C-259.4405657 14.50797234 -262.80825866 14.50090524 -266.17686462 14.48774719 C-267.63515282 14.50420106 -267.63515282 14.50420106 -269.12290138 14.52098733 C-275.57008616 14.46030675 -280.32859402 13.06326661 -286 10 C-283.3333581 8.66667905 -281.83319697 9.32897967 -279 10 C-279 10.66 -279 11.32 -279 12 C-245.58042447 11.91825729 -212.16089618 11.82610067 -178.74138956 11.71994839 C-174.79723846 11.7074293 -170.85308709 11.69499656 -166.90893555 11.68261719 C-166.12371541 11.68015119 -165.33849528 11.6776852 -164.5294806 11.67514448 C-151.80997923 11.63540472 -139.09046895 11.60266277 -126.37094168 11.57250018 C-113.32263757 11.54140244 -100.27437128 11.50280024 -87.22610968 11.45720994 C-79.17256947 11.42930826 -71.11905698 11.40728252 -63.06548139 11.39273749 C-56.89331927 11.38096384 -50.7212351 11.35875672 -44.54911804 11.33261681 C-42.0146757 11.32352644 -39.48021854 11.31784742 -36.94576073 11.31578636 C-33.49232517 11.31247418 -30.039152 11.29702467 -26.58576965 11.2784729 C-25.07263686 11.281375 -25.07263686 11.281375 -23.52893573 11.28433573 C-18.8313659 11.24646713 -15.31406199 11.02978317 -11 9 C-9.68 9 -8.36 9 -7 9 C-7 8.34 -7 7.68 -7 7 C-7.99 7 -8.98 7 -10 7 C-9.5 5.0625 -9.5 5.0625 -8 3 C-5.30341548 2.31209578 -2.7982981 2.18053536 0 2 C0 1.34 0 0.68 0 0 Z " fill="#EC6D24" transform="translate(396,417)"/>
<path d="M0 0 C0.33 0 0.66 0 1 0 C0.67 5.28 0.34 10.56 0 16 C32.34 16 64.68 16 98 16 C98 12.04 98 8.08 98 4 C98.33 4 98.66 4 99 4 C99.11633933 8.22893468 99.18729952 12.45745674 99.25 16.6875 C99.28351563 17.88568359 99.31703125 19.08386719 99.3515625 20.31835938 C99.37089844 22.05375977 99.37089844 22.05375977 99.390625 23.82421875 C99.4220459 25.41882935 99.4220459 25.41882935 99.45410156 27.0456543 C98.89164173 30.70496959 97.46002806 32.29744641 95 35 C93.43070745 38.1385851 93.72283507 40.50772191 94 44 C95.12969989 47.10790799 96.50323775 50.05324933 98 53 C97.34 53 96.68 53 96 53 C96 52.34 96 51.68 96 51 C95.34 51 94.68 51 94 51 C91.74884153 47.38368117 91.63828884 44.20850966 91.5625 40 C91.50255859 38.1746875 91.50255859 38.1746875 91.44140625 36.3125 C91.62574219 35.219375 91.81007813 34.12625 92 33 C92.81339844 32.4225 93.62679687 31.845 94.46484375 31.25 C98.32568998 28.34064713 98.32568998 28.34064713 98 18 C65.66 18 33.32 18 0 18 C0 19.65 0 21.3 0 23 C1.32 23.33 2.64 23.66 4 24 C3.01 24 2.02 24 1 24 C1.34224609 24.92232422 1.34224609 24.92232422 1.69140625 25.86328125 C1.97886719 26.67152344 2.26632813 27.47976562 2.5625 28.3125 C2.85253906 29.11300781 3.14257812 29.91351563 3.44140625 30.73828125 C4 33 4 33 3 36 C-2.21243733 30.26323466 -1.49650061 24.30862474 -1.3125 16.875 C-1.30283203 15.69550781 -1.29316406 14.51601562 -1.28320312 13.30078125 C-1.16029848 3.90659125 -1.16029848 3.90659125 0 0 Z " fill="#E29667" transform="translate(201,113)"/>
<path d="M0 0 C3.08238235 2.77414411 4.98522814 4.94091256 6 9 C6 15.09025971 4.7276369 18.06713658 0.66796875 22.5546875 C-2.95602831 25.69491915 -6.14768996 26.44610306 -10.97265625 26.3203125 C-15.21774598 25.64960468 -18.01373313 23.08829448 -20.8125 20 C-23.29860169 15.81288137 -23.33850463 11.82369102 -23 7 C-21.5 4.0625 -21.5 4.0625 -20 2 C-19.4375 3.9375 -19.4375 3.9375 -19 6 C-19.33 6.33 -19.66 6.66 -20 7 C-20.23075082 8.34747084 -20.41153063 9.70377565 -20.5625 11.0625 C-20.7790625 13.0115625 -20.7790625 13.0115625 -21 15 C-20.01 15 -19.02 15 -18 15 C-15.8125 17 -15.8125 17 -14 19 C-13.01 18.67 -12.02 18.34 -11 18 C-8.3125 18.4375 -8.3125 18.4375 -6 19 C-6 17.02 -6 15.04 -6 13 C-4.68 12.34 -3.36 11.68 -2 11 C-2 8.03 -2 5.06 -2 2 C-1.34 2 -0.68 2 0 2 C0 1.34 0 0.68 0 0 Z " fill="#3E3F3F" transform="translate(200,143)"/>
<path d="M0 0 C0.33 0 0.66 0 1 0 C1.33 2.64 1.66 5.28 2 8 C2.33 8 2.66 8 3 8 C3.02911003 11.89581756 3.04683587 15.791607 3.0625 19.6875 C3.07087891 20.79029297 3.07925781 21.89308594 3.08789062 23.02929688 C3.09111328 24.09599609 3.09433594 25.16269531 3.09765625 26.26171875 C3.10289307 27.24100342 3.10812988 28.22028809 3.11352539 29.22924805 C3.00308543 31.92469572 2.60534166 34.37545639 2 37 C1.34 37 0.68 37 0 37 C0.2475 37.763125 0.495 38.52625 0.75 39.3125 C1.11895997 44.7546596 -0.98201349 49.01760696 -3 54 C-3.33 54.99 -3.66 55.98 -4 57 C-4.66 57 -5.32 57 -6 57 C-5.34 59.31 -4.68 61.62 -4 64 C-4.6496875 64.5878125 -4.6496875 64.5878125 -5.3125 65.1875 C-7.15274402 66.98200618 -7.15274402 66.98200618 -8.25 69.625 C-10 72 -10 72 -13.5 72.8125 C-15.66446425 72.92845344 -17.83243208 73 -20 73 C-20.185625 73.639375 -20.37125 74.27875 -20.5625 74.9375 C-22 77 -22 77 -25.625 77.75 C-26.73875 77.8325 -27.8525 77.915 -29 78 C-26.64722731 75.27573689 -24.37503669 74.1858237 -21 73 C-21 72.34 -21 71.68 -21 71 C-19.86000355 69.86000355 -18.71648829 68.72337534 -17.55859375 67.6015625 C-5.11250051 54.81234389 0.1601648 38.98281357 0.125 21.3125 C0.12318726 20.27790649 0.12318726 20.27790649 0.12133789 19.22241211 C0.0808811 13.83543548 -0.29490191 8.51713429 -0.87890625 3.16015625 C-0.91886719 2.44730469 -0.95882813 1.73445312 -1 1 C-0.67 0.67 -0.34 0.34 0 0 Z " fill="#E65F0D" transform="translate(338,231)"/>
<path d="M0 0 C0.55966681 0.32559465 1.11933363 0.65118931 1.69596004 0.98665047 C4.30084229 2.13231472 6.02994877 2.23712643 8.86463928 2.21359253 C10.33044685 2.20904556 10.33044685 2.20904556 11.8258667 2.20440674 C12.89145813 2.19093201 13.95704956 2.17745728 15.05493164 2.16357422 C16.18211105 2.1574411 17.30929047 2.15130798 18.47062683 2.14498901 C20.91843054 2.1306796 23.36621123 2.11189991 25.81395149 2.08919907 C29.68388005 2.05447463 33.55364415 2.03383932 37.4236908 2.0173645 C48.42690682 1.9683981 59.42989903 1.89721006 70.43286133 1.80810547 C77.16123113 1.75378818 83.88944629 1.72049365 90.61800957 1.69836807 C93.18616912 1.68592214 95.75430317 1.66587881 98.32234383 1.6382103 C101.90655013 1.59993095 105.49008026 1.58600818 109.07446289 1.57763672 C110.14207855 1.56011353 111.20969421 1.54259033 112.30966187 1.52453613 C113.28404709 1.52714447 114.25843231 1.52975281 115.26234436 1.53244019 C116.1098076 1.52615538 116.95727083 1.51987057 117.83041477 1.51339531 C120 2 120 2 121.79610348 4.02922249 C122.39203226 5.00475736 122.39203226 5.00475736 123 6 C122.19811752 5.85789093 121.39623505 5.71578186 120.5700531 5.56936646 C108.31220529 3.64912614 96.16778981 3.74532904 83.78515625 3.8046875 C81.47489037 3.80842537 79.1646229 3.81126868 76.85435486 3.81326294 C70.82271825 3.8208385 64.79118051 3.84043367 58.75958252 3.8626709 C52.58517799 3.88326142 46.41075722 3.89229269 40.23632812 3.90234375 C28.15750904 3.9236862 16.0787628 3.9577473 4 4 C3.30509627 7.77308438 2.87653882 11.34398295 2.88647461 15.17919922 C2.88655014 16.15976288 2.88662567 17.14032654 2.88670349 18.15060425 C2.89186478 19.19145172 2.89702606 20.23229919 2.90234375 21.3046875 C2.9037587 22.38380402 2.90517365 23.46292053 2.90663147 24.57473755 C2.91221156 28.00818702 2.92476045 31.44157036 2.9375 34.875 C2.94251757 37.20833239 2.94708003 39.5416658 2.95117188 41.875 C2.96217447 47.58335575 2.97889279 53.29167315 3 59 C2.34 59 1.68 59 1 59 C0.97468653 51.50692464 0.95714856 44.01386027 0.94506836 36.52075195 C0.94003338 33.97061755 0.93320504 31.42048605 0.92456055 28.87036133 C0.91245851 25.20913988 0.90676339 21.54795652 0.90234375 17.88671875 C0.89718246 16.7428923 0.89202118 15.59906586 0.88670349 14.420578 C0.88662796 13.35970474 0.88655243 12.29883148 0.88647461 11.20581055 C0.884254 10.27093307 0.88203339 9.3360556 0.87974548 8.37284851 C1 6 1 6 2 3 C0.68 2.67 -0.64 2.34 -2 2 C-1.34 1.34 -0.68 0.68 0 0 Z " fill="#E89F6F" transform="translate(168,181)"/>
<path d="M0 0 C0.89167877 -0.01260864 1.78335754 -0.02521729 2.70205688 -0.03820801 C3.66453339 -0.03011108 4.62700989 -0.02201416 5.61865234 -0.01367188 C6.61408051 -0.01749878 7.60950867 -0.02132568 8.63510132 -0.02526855 C10.74502572 -0.0279925 12.85498361 -0.02059767 14.96484375 -0.00390625 C18.17184391 0.01736097 21.37656895 -0.00362171 24.58349609 -0.02929688 C26.63688641 -0.02665104 28.69027532 -0.02152078 30.74365234 -0.01367188 C32.16914902 -0.02581726 32.16914902 -0.02581726 33.6234436 -0.03820801 C40.55882115 0.05782372 47.097605 1.2663093 52.33023071 6.15222168 C52.74251923 6.60278931 53.15480774 7.05335693 53.57958984 7.51757812 C46.82958984 8.64257812 46.82958984 8.64257812 44.57958984 7.51757812 C44.57958984 6.85757813 44.57958984 6.19757813 44.57958984 5.51757812 C39.31789345 3.38445797 34.61147726 3.17804488 29.02490234 3.10351562 C27.67258011 3.0744664 27.67258011 3.0744664 26.29293823 3.04483032 C23.43024988 2.98533517 20.56752067 2.93876995 17.70458984 2.89257812 C15.75665622 2.85437065 13.80873899 2.81531732 11.86083984 2.77539062 C7.10055727 2.67965847 2.34019565 2.59551697 -2.42041016 2.51757812 C-3.08041016 3.83757812 -3.74041016 5.15757812 -4.42041016 6.51757812 C-5.08041016 6.51757812 -5.74041016 6.51757812 -6.42041016 6.51757812 C-6.42041016 22.68757813 -6.42041016 38.85757813 -6.42041016 55.51757812 C-6.75041016 55.51757812 -7.08041016 55.51757812 -7.42041016 55.51757812 C-7.49643235 48.32770556 -7.5489983 41.13793653 -7.58520508 33.94775391 C-7.60029786 31.50142544 -7.62077418 29.05512406 -7.64672852 26.60888672 C-7.68308933 23.09400756 -7.70013177 19.57948594 -7.71337891 16.06445312 C-7.72886276 14.96953552 -7.74434662 13.87461792 -7.76029968 12.746521 C-7.76052628 11.72576477 -7.76075287 10.70500854 -7.76098633 9.65332031 C-7.76764816 8.75619324 -7.77431 7.85906616 -7.78117371 6.93475342 C-7.04816569 2.02347877 -4.89413209 0.0198818 0 0 Z " fill="#E4844B" transform="translate(227.42041015625,222.482421875)"/>
<path d="M0 0 C0.33 0 0.66 0 1 0 C1.11633933 4.22893468 1.18729952 8.45745674 1.25 12.6875 C1.30027344 14.48477539 1.30027344 14.48477539 1.3515625 16.31835938 C1.36445313 17.47529297 1.37734375 18.63222656 1.390625 19.82421875 C1.41157227 20.88729248 1.43251953 21.95036621 1.45410156 23.0456543 C0.7594687 27.56487593 -1.86378137 29.86378137 -5 33 C-5 31.35 -5 29.7 -5 28 C-4.34 28 -3.68 28 -3 28 C-3 27.34 -3 26.68 -3 26 C-2.34 26 -1.68 26 -1 26 C-1 22.04 -1 18.08 -1 14 C-7.81775347 14.11790699 -14.63535076 14.24212949 -21.45288086 14.37231445 C-23.77413773 14.41573739 -26.09542808 14.45740684 -28.41674805 14.49731445 C-31.74538278 14.5548394 -35.07384785 14.61858425 -38.40234375 14.68359375 C-39.44712387 14.70030624 -40.49190399 14.71701874 -41.56834412 14.73423767 C-42.52926468 14.75418289 -43.49018524 14.77412811 -44.48022461 14.79467773 C-45.33071884 14.81022202 -46.18121307 14.8257663 -47.05747986 14.84178162 C-49.00523798 14.78944829 -49.00523798 14.78944829 -50 16 C-52.33944736 15.71269945 -54.6739143 15.38063221 -57 15 C-54.14717674 12.14717674 -51.44324133 12.06943735 -47.50053406 11.87974548 C-46.1848217 11.8830764 -46.1848217 11.8830764 -44.8425293 11.88647461 C-43.84186935 11.88655014 -42.84120941 11.88662567 -41.81022644 11.88670349 C-40.7423439 11.89186478 -39.67446136 11.89702606 -38.57421875 11.90234375 C-37.47149124 11.9037587 -36.36876373 11.90517365 -35.23262024 11.90663147 C-31.71755233 11.91221996 -28.20254859 11.92477041 -24.6875 11.9375 C-22.30143321 11.94251648 -19.91536543 11.94707913 -17.52929688 11.95117188 C-11.68617327 11.96218563 -5.84309751 11.97944242 0 12 C0 8.04 0 4.08 0 0 Z " fill="#E09F75" transform="translate(182,117)"/>
<path d="M0 0 C2.15759845 4.3151969 2.08119479 6.29070218 2 11 C2.33 12.98 2.66 14.96 3 17 C18.18 17 33.36 17 49 17 C49.66 15.68 50.32 14.36 51 13 C51.66 12.67 52.32 12.34 53 12 C53.66 13.98 54.32 15.96 55 18 C53.35 19.32 51.7 20.64 50 22 C50 21.34 50 20.68 50 20 C34.49 20 18.98 20 3 20 C3 19.34 3 18.68 3 18 C2.01 18 1.02 18 0 18 C0 12.06 0 6.12 0 0 Z " fill="#DB7D47" transform="translate(169,369)"/>
<path d="M0 0 C0.33 0 0.66 0 1 0 C1.07347656 0.90492188 1.07347656 0.90492188 1.1484375 1.828125 C1.22320312 2.62734375 1.29796875 3.4265625 1.375 4.25 C1.44460938 5.03890625 1.51421875 5.8278125 1.5859375 6.640625 C1.87830676 9.03823785 1.87830676 9.03823785 3.12890625 11.0859375 C3.41636719 11.71757812 3.70382812 12.34921875 4 13 C3.00522247 15.33556463 2.00484883 17.66875071 1 20 C1.27571139 22.00875442 1.60235737 24.01178687 2 26 C1.0625 28.1875 1.0625 28.1875 0 30 C0 30.99 0 31.98 0 33 C0 33.66 0 34.32 0 35 C3.00778521 36.00259507 5.53820647 36.30314642 8.6875 36.5625 C9.68136719 36.64628906 10.67523438 36.73007813 11.69921875 36.81640625 C12.83810547 36.90728516 12.83810547 36.90728516 14 37 C12 39 12 39 8.25 39.375 C3.80650278 39.23010335 1.34235229 38.03850208 -2 35 C-5.32047616 30.24615059 -6.86646085 25.84861075 -6 20 C-4.50254139 17.39152371 -3.12971098 15.12971098 -1 13 C-0.76518307 10.81707226 -0.58636677 8.62796826 -0.4375 6.4375 C-0.35371094 5.23996094 -0.26992188 4.04242188 -0.18359375 2.80859375 C-0.12300781 1.88175781 -0.06242187 0.95492187 0 0 Z " fill="#473C34" transform="translate(300,130)"/>
<path d="M0 0 C0.5625 1.9375 0.5625 1.9375 1 4 C0.67 4.33 0.34 4.66 0 5 C-0.23075082 6.34747084 -0.41153063 7.70377565 -0.5625 9.0625 C-0.7790625 11.0115625 -0.7790625 11.0115625 -1 13 C-0.01 13 0.98 13 2 13 C4.1875 15 4.1875 15 6 17 C6.99 16.67 7.98 16.34 9 16 C11.6875 16.4375 11.6875 16.4375 14 17 C14 17.66 14 18.32 14 19 C12.68 19 11.36 19 10 19 C10 19.99 10 20.98 10 22 C12.31 22 14.62 22 17 22 C15 24 15 24 11.25 24.375 C6.86722061 24.26364081 4.38445101 22.83349387 1 20 C-2.35333457 16.29976875 -2.89343244 13.46530397 -3.25 8.5625 C-2.98523846 4.78964807 -2.19526181 3.01848498 0 0 Z " fill="#3B3E42" transform="translate(180,145)"/>
<path d="M0 0 C0.33 0 0.66 0 1 0 C0.67 15.18 0.34 30.36 0 46 C-0.99 46.495 -0.99 46.495 -2 47 C-2.33 54.92 -2.66 62.84 -3 71 C-3.33 71 -3.66 71 -4 71 C-4.93046524 61.55458328 -4.9241944 52.60194217 -4.00390625 43.1640625 C-3.89151108 41.9186972 -3.77911591 40.67333191 -3.66331482 39.39022827 C-3.30687821 35.4674367 -2.93497979 31.54629729 -2.5625 27.625 C-2.31475839 24.94291716 -2.07042276 22.26052769 -1.82617188 19.578125 C-1.22923235 13.05095106 -0.61964027 6.52505597 0 0 Z " fill="#E99664" transform="translate(95,331)"/>
<path d="M0 0 C-4.14026212 3.4009296 -7.35717562 4.11612876 -12.64501953 4.16113281 C-14.01631516 4.17554413 -14.01631516 4.17554413 -15.41531372 4.19024658 C-16.39458832 4.19449646 -17.37386292 4.19874634 -18.3828125 4.203125 C-19.39342743 4.20882507 -20.40404236 4.21452515 -21.44528198 4.22039795 C-23.57858232 4.22983323 -25.71189713 4.23637608 -27.84521484 4.24023438 C-31.11972022 4.24998428 -34.39360945 4.28103941 -37.66796875 4.3125 C-39.7395796 4.31902589 -41.81119494 4.32427799 -43.8828125 4.328125 C-44.86613556 4.3404718 -45.84945862 4.3528186 -46.86257935 4.36553955 C-47.77047211 4.36253845 -48.67836487 4.35953735 -49.61376953 4.35644531 C-50.41444855 4.36009094 -51.21512756 4.36373657 -52.04006958 4.36749268 C-52.68684662 4.24622009 -53.33362366 4.12494751 -54 4 C-54.66 3.01 -55.32 2.02 -56 1 C-55.40309357 1.00222061 -54.80618713 1.00444122 -54.19119263 1.00672913 C-47.99481808 1.02880297 -41.79845465 1.04391542 -35.60205078 1.05493164 C-33.28759304 1.05996943 -30.9731385 1.06679981 -28.65869141 1.07543945 C-25.3375571 1.08752924 -22.01646475 1.09323375 -18.6953125 1.09765625 C-17.65569366 1.10281754 -16.61607483 1.10797882 -15.54495239 1.11329651 C-14.58410736 1.11337204 -13.62326233 1.11344757 -12.63330078 1.11352539 C-11.78502716 1.115746 -10.93675354 1.11796661 -10.06277466 1.12025452 C-6.57413475 0.91687568 -3.71407317 -0.08074072 0 0 Z " fill="#D76527" transform="translate(277,277)"/>
<path d="M0 0 C0.33 0 0.66 0 1 0 C1.33 2.64 1.66 5.28 2 8 C2.33 8 2.66 8 3 8 C3.02911003 11.89581756 3.04683587 15.791607 3.0625 19.6875 C3.07087891 20.79029297 3.07925781 21.89308594 3.08789062 23.02929688 C3.09111328 24.09599609 3.09433594 25.16269531 3.09765625 26.26171875 C3.10289307 27.24100342 3.10812988 28.22028809 3.11352539 29.22924805 C3.00308543 31.92469572 2.60534166 34.37545639 2 37 C1.34 37 0.68 37 0 37 C0.3403125 38.2684375 0.3403125 38.2684375 0.6875 39.5625 C1.09858526 44.08443791 0.1731418 46.04177744 -2 50 C-3.485 50.495 -3.485 50.495 -5 51 C-4.80664062 50.41734375 -4.61328125 49.8346875 -4.4140625 49.234375 C0.4487459 33.92375052 0.85199264 19.03741398 -0.87890625 3.16015625 C-0.91886719 2.44730469 -0.95882813 1.73445312 -1 1 C-0.67 0.67 -0.34 0.34 0 0 Z " fill="#DA8E5F" transform="translate(338,231)"/>
<path d="M0 0 C10.50920045 -0.09259624 21.01830419 -0.16371219 31.52782917 -0.20724869 C36.40761515 -0.22814192 41.28712247 -0.25649113 46.16674805 -0.30175781 C50.87406854 -0.34515381 55.58112066 -0.36912402 60.28862572 -0.37950897 C62.08644017 -0.3869116 63.88423959 -0.40136696 65.68194008 -0.42292023 C68.19624432 -0.4518718 70.70943341 -0.45595956 73.22387695 -0.45410156 C74.34381294 -0.47567322 74.34381294 -0.47567322 75.4863739 -0.49768066 C77.56416321 -0.48101807 77.56416321 -0.48101807 81 0 C82.98600769 2.02838135 82.98600769 2.02838135 84 4 C83.10045593 3.8570752 82.20091187 3.71415039 81.27410889 3.56689453 C72.55540452 2.27966903 64.11568544 1.74115448 55.28281403 1.84967041 C53.13843361 1.87578791 50.99430723 1.88836975 48.84979248 1.89794922 C44.31641072 1.92046829 39.78324804 1.9590949 35.25 2 C29.94820512 2.04735735 24.64652277 2.0879463 19.34456635 2.11187744 C17.23551007 2.12480155 15.12681938 2.14978312 13.0178833 2.17529297 C11.74515564 2.18189941 10.47242798 2.18850586 9.16113281 2.1953125 C7.48026581 2.21102295 7.48026581 2.21102295 5.76544189 2.22705078 C3 2 3 2 0 0 Z " fill="#F89F73" transform="translate(207,183)"/>
<path d="M0 0 C2 2 2 2 2.265625 4.58984375 C2.23216602 11.75843089 1.84534296 18.80707815 1.125 25.9375 C1.04668945 26.72954834 0.96837891 27.52159668 0.88769531 28.33764648 C0.36443247 33.08961485 -0.55540405 37.44163211 -2 42 C-2.33 42 -2.66 42 -3 42 C-3.02730462 40.12508307 -3.04653244 38.25004775 -3.0625 36.375 C-3.07410156 35.33085937 -3.08570312 34.28671875 -3.09765625 33.2109375 C-3.00115597 30.03800823 -2.5213208 27.12792479 -2 24 C-1.76747217 21.00305348 -1.63378785 18.00279389 -1.5 15 C-1.27373182 9.9215365 -0.96273199 5.00620634 0 0 Z " fill="#EA8F57" transform="translate(107,195)"/>
<path d="M0 0 C0.66 0.33 1.32 0.66 2 1 C1.34 2.32 0.68 3.64 0 5 C-0.66 5 -1.32 5 -2 5 C-2.66 6.65 -3.32 8.3 -4 10 C-5.60875 9.938125 -5.60875 9.938125 -7.25 9.875 C-12.93103623 9.85456462 -18.43295193 10.96081769 -24 12 C-24 11.34 -24 10.68 -24 10 C-17.22823405 7.26377854 -10.42430076 4.62666178 -3.58984375 2.05078125 C-1.11097167 1.24076569 -1.11097167 1.24076569 0 0 Z " fill="#E35F0B" transform="translate(307,309)"/>
<path d="M0 0 C1.65 0 3.3 0 5 0 C0.1916851 6.32673013 -5.48002971 11.64671696 -13.421875 13.59375 C-15.625 13.875 -15.625 13.875 -19 14 C-18.01 13.67 -17.02 13.34 -16 13 C-16 12.34 -16 11.68 -16 11 C-12.62902617 9.50178941 -10.79557881 9 -7 9 C-7 8.34 -7 7.68 -7 7 C-7.99 7 -8.98 7 -10 7 C-9.5 5.0625 -9.5 5.0625 -8 3 C-5.30341548 2.31209578 -2.7982981 2.18053536 0 2 C0 1.34 0 0.68 0 0 Z " fill="#F08442" transform="translate(396,417)"/>
<path d="M0 0 C2.09012603 1.80510884 3.00096499 3.0025331 4 5.625 C4.495 6.800625 4.495 6.800625 5 8 C5.99 8.33 6.98 8.66 8 9 C8.061875 9.78375 8.12375 10.5675 8.1875 11.375 C8.455625 12.24125 8.72375 13.1075 9 14 C11.47636012 15.37466625 11.47636012 15.37466625 14 16 C14 17.32 14 18.64 14 20 C15.32 20.66 16.64 21.32 18 22 C18 22.66 18 23.32 18 24 C15.0280615 22.87548273 12.66559313 21.77706209 10 20 C10 19.34 10 18.68 10 18 C9.34 18 8.68 18 8 18 C6.30859375 15.5859375 6.30859375 15.5859375 4.4375 12.375 C3.50744141 10.80878906 3.50744141 10.80878906 2.55859375 9.2109375 C1.02317041 6.04773453 0.38093911 3.47541705 0 0 Z " fill="#EC8C53" transform="translate(92,402)"/>
<path d="M0 0 C0.33 0 0.66 0 1 0 C1.1076569 9.79677756 1.04261204 19.58332041 0.6875 29.375 C0.66502197 30.27178467 0.64254395 31.16856934 0.61938477 32.0925293 C0.29305381 39.83937463 0.29305381 39.83937463 -3 43 C-2.4410666 28.61481929 -1.4248553 14.32529196 0 0 Z " fill="#E58853" transform="translate(99,286)"/>
<path d="M0 0 C6.20312036 6.03546846 9.80110765 10.50800485 10.12109375 19.34375 C10.12459527 22.56514571 10.08716116 25.77987936 10 29 C9.34 29 8.68 29 8 29 C7.90912109 27.82244141 7.90912109 27.82244141 7.81640625 26.62109375 C7.37179786 21.04638852 6.87875357 15.52359384 6 10 C5.01 10 4.02 10 3 10 C3 8.68 3 7.36 3 6 C2.01 5.67 1.02 5.34 0 5 C0 3.35 0 1.7 0 0 Z " fill="#EE9C6A" transform="translate(281,230)"/>
<path d="M0 0 C0.6875 1.625 0.6875 1.625 1 4 C0.52304688 4.89460937 0.04609375 5.78921875 -0.4453125 6.7109375 C-2.17592631 10.3721858 -2.4256958 12.97530857 -2.5625 17 C-2.73380082 21.73413164 -3.3148252 25.56034269 -5 30 C-5.33 30 -5.66 30 -6 30 C-6.26408452 18.732394 -6.14571821 9.83314914 0 0 Z " fill="#E98E58" transform="translate(116,138)"/>
<path d="M0 0 C0.33 0 0.66 0 1 0 C1.50868796 4.14481478 2.00535957 8.29098724 2.5 12.4375 C2.64308594 13.60216797 2.78617187 14.76683594 2.93359375 15.96679688 C3.69044632 22.36400312 4.16533901 28.55866785 4 35 C3.67 35 3.34 35 3 35 C2.67 33.02 2.34 31.04 2 29 C1.67 29 1.34 29 1 29 C-2.29263914 8.59739677 -2.29263914 8.59739677 0 0 Z " fill="#EC935C" transform="translate(398,269)"/>
<path d="M0 0 C3.80163224 3.11042638 4.69719177 6.77023027 5.34375 11.53125 C6.13310513 19.68791964 6.10063856 27.81473066 6 36 C3.48788316 32.23182474 3.55256315 29.00489113 3.375 24.625 C3.33632813 23.86960938 3.29765625 23.11421875 3.2578125 22.3359375 C3.10544602 19.223308 2.99815694 16.14044154 3.0390625 13.0234375 C3.23395944 11.00285048 3.23395944 11.00285048 2 10 C1.95919217 8.00041636 1.95745644 5.99954746 2 4 C1.34 4 0.68 4 0 4 C0 2.68 0 1.36 0 0 Z " fill="#E59058" transform="translate(384,140)"/>
<path d="M0 0 C0.33 0 0.66 0 1 0 C1.20548568 9.55508416 1.09044019 18.98391068 0.125 28.5 C0.04652832 29.31831299 -0.03194336 30.13662598 -0.11279297 30.97973633 C-0.7506755 36.7506755 -0.7506755 36.7506755 -3 39 C-3.12733842 31.3163055 -2.77024588 23.77467885 -2.0625 16.125 C-1.97548828 15.11953125 -1.88847656 14.1140625 -1.79882812 13.078125 C-1.40228834 8.64862877 -0.93206339 4.35353106 0 0 Z " fill="#E99A67" transform="translate(103,243)"/>
<path d="M0 0 C2.22758285 3.34137427 2.26960385 4.952641 1.68359375 8.859375 C0.48339977 12.61769671 -2.01722315 15.46820002 -5 18 C-5.66 18 -6.32 18 -7 18 C-6.814375 17.278125 -6.62875 16.55625 -6.4375 15.8125 C-5.98004693 12.87173027 -6.26483643 10.85896942 -7 8 C-5.68 8 -4.36 8 -3 8 C-2.67 8.99 -2.34 9.98 -2 11 C-1.34 7.37 -0.68 3.74 0 0 Z " fill="#413D38" transform="translate(204,149)"/>
<path d="M0 0 C0.33 0 0.66 0 1 0 C1.05534912 0.6705542 1.11069824 1.3411084 1.16772461 2.03198242 C1.42134011 5.08407737 1.67937638 8.13578314 1.9375 11.1875 C2.02451172 12.24259766 2.11152344 13.29769531 2.20117188 14.38476562 C2.28818359 15.40634766 2.37519531 16.42792969 2.46484375 17.48046875 C2.543396 18.41785889 2.62194824 19.35524902 2.70288086 20.32104492 C2.99184971 22.92651346 3.4755134 25.43340891 4 28 C4.13748288 30.05959927 4.21923299 32.12354649 4.25 34.1875 C4.28867187 35.75564453 4.28867187 35.75564453 4.328125 37.35546875 C4.21984375 38.22816406 4.1115625 39.10085938 4 40 C3.01 40.66 2.02 41.32 1 42 C0.505 21.21 0.505 21.21 0 0 Z " fill="#EE9D69" transform="translate(394,224)"/>
<path d="M0 0 C0.33 0 0.66 0 1 0 C1 7.59 1 15.18 1 23 C-0.32 22.67 -1.64 22.34 -3 22 C-3.05437607 20.41705218 -3.09296271 18.83355744 -3.125 17.25 C-3.14820313 16.36828125 -3.17140625 15.4865625 -3.1953125 14.578125 C-2.98774047 11.83817419 -2.27418098 10.39391578 -1 8 C-0.55499715 5.87406942 -0.55499715 5.87406942 -0.375 3.75 C-0.25125 2.5125 -0.1275 1.275 0 0 Z " fill="#38383A" transform="translate(199,120)"/>
<path d="M0 0 C0.7410498 0.48895752 0.7410498 0.48895752 1.49707031 0.98779297 C4.99168389 2.40104579 8.3390919 2.24669114 12.046875 2.1953125 C12.81807678 2.1924826 13.58927856 2.18965271 14.3838501 2.18673706 C16.83939332 2.17557013 19.2945676 2.15047229 21.75 2.125 C23.41796347 2.11496568 25.08593268 2.10584061 26.75390625 2.09765625 C30.83607897 2.07564225 34.917977 2.04113667 39 2 C39 2.33 39 2.66 39 3 C21.675 3.495 21.675 3.495 4 4 C3.34 5.32 2.68 6.64 2 8 C2 6.35 2 4.7 2 3 C0.68 2.67 -0.64 2.34 -2 2 C-1.34 1.34 -0.68 0.68 0 0 Z " fill="#E88B57" transform="translate(168,181)"/>
<path d="M0 0 C0.33 0 0.66 0 1 0 C1.33977725 3.33270874 1.67063063 6.66624786 2 10 C2.14308594 11.40185547 2.14308594 11.40185547 2.2890625 12.83203125 C2.81980465 18.25318323 3.1027694 23.55322171 3 29 C2.34 28.67 1.68 28.34 1 28 C0.62109375 25.56640625 0.62109375 25.56640625 0.4375 22.5625 C0.26890634 18.63464783 0.26890634 18.63464783 -1 15 C-1.09657872 13.2104531 -1.12980468 11.41714466 -1.125 9.625 C-1.12757813 8.66851562 -1.13015625 7.71203125 -1.1328125 6.7265625 C-1.01551878 4.31859146 -0.68675951 2.30009932 0 0 Z " fill="#E67E45" transform="translate(402,311)"/>
<path d="M0 0 C1.63984529 0.00031732 3.27971127 0.01165397 4.91943359 0.03173828 C6.21365738 0.03598312 6.21365738 0.03598312 7.5340271 0.04031372 C10.29544829 0.05152746 13.05654759 0.07663394 15.81787109 0.10205078 C17.68765808 0.11207905 19.55745015 0.12120517 21.42724609 0.12939453 C26.01591218 0.15147066 30.60433702 0.18600844 35.19287109 0.22705078 C35.19287109 0.55705078 35.19287109 0.88705078 35.19287109 1.22705078 C34.19843994 1.25210693 33.20400879 1.27716309 32.17944336 1.30297852 C28.50238362 1.3968996 24.8255196 1.49715697 21.14868164 1.59936523 C19.55497809 1.64277224 17.96122629 1.68444297 16.36743164 1.72436523 C14.08123201 1.78192886 11.7952766 1.84566227 9.50927734 1.91064453 C8.4342672 1.93571327 8.4342672 1.93571327 7.33753967 1.96128845 C3.97759727 1.77723732 3.97759727 1.77723732 1.19287109 3.22705078 C-1.14657627 2.93975023 -3.48104321 2.60768299 -5.80712891 2.22705078 C-3.80712891 0.22705078 -3.80712891 0.22705078 0 0 Z " fill="#D85D1E" transform="translate(130.80712890625,129.77294921875)"/>
<path d="M0 0 C2.49118953 3.7367843 2.2065226 5.74451819 2.125 10.1875 C2.10695313 11.45980469 2.08890625 12.73210937 2.0703125 14.04296875 C2.03550781 15.50669922 2.03550781 15.50669922 2 17 C2.99 17.33 3.98 17.66 5 18 C7.21051028 21.19133273 7.21560042 23.94478238 7.125 27.75 C7.10695313 28.73484375 7.08890625 29.7196875 7.0703125 30.734375 C7.03550781 31.85585937 7.03550781 31.85585937 7 33 C6.67 33 6.34 33 6 33 C5.96132813 32.00419922 5.96132813 32.00419922 5.921875 30.98828125 C5.86515625 30.10527344 5.8084375 29.22226563 5.75 28.3125 C5.70359375 27.44238281 5.6571875 26.57226562 5.609375 25.67578125 C5.18286837 22.84722817 5.18286837 22.84722817 3 20.65625 C0.43480801 17.24935439 0.33654129 14.2982114 0.25 10.1875 C0.22035156 9.49462891 0.19070313 8.80175781 0.16015625 8.08789062 C0.09000372 6.39253787 0.04267338 4.69626688 0 3 C-0.99 3 -1.98 3 -3 3 C-3 2.34 -3 1.68 -3 1 C-2.01 0.67 -1.02 0.34 0 0 Z " fill="#503A2C" transform="translate(315,127)"/>
<path d="M0 0 C0.66 0.33 1.32 0.66 2 1 C2.5 3.5 2.5 3.5 3 6 C3.66 6.33 4.32 6.66 5 7 C5.72159424 8.64363134 6.39351421 10.31050386 7 12 C3.03869629 12 2.17085599 10.65122875 -0.6875 8 C-1.49574219 7.2575 -2.30398438 6.515 -3.13671875 5.75 C-3.75160156 5.1725 -4.36648438 4.595 -5 4 C-4.0409375 3.8453125 -4.0409375 3.8453125 -3.0625 3.6875 C-2.381875 3.460625 -1.70125 3.23375 -1 3 C-0.67 2.01 -0.34 1.02 0 0 Z " fill="#EF8748" transform="translate(318,194)"/>
<path d="M0 0 C0.33 0 0.66 0 1 0 C1.33 2.64 1.66 5.28 2 8 C2.33 8 2.66 8 3 8 C3 15.92 3 23.84 3 32 C2.67 32 2.34 32 2 32 C2 25.73 2 19.46 2 13 C1.34 13 0.68 13 0 13 C-0.19397476 11.02145742 -0.38001321 9.0421352 -0.5625 7.0625 C-0.66691406 5.96035156 -0.77132813 4.85820312 -0.87890625 3.72265625 C-0.91886719 2.82417969 -0.95882813 1.92570313 -1 1 C-0.67 0.67 -0.34 0.34 0 0 Z " fill="#E08247" transform="translate(338,231)"/>
<path d="M0 0 C6.17195408 0.27430907 10.17148355 1.03814035 15 5 C15 5.33 15 5.66 15 6 C8.25 7.125 8.25 7.125 6 6 C6 5.34 6 4.68 6 4 C4.02 3.34 2.04 2.68 0 2 C0 1.34 0 0.68 0 0 Z " fill="#EA7837" transform="translate(266,224)"/>
<path d="M0 0 C0.5534764 2.07553648 1 3.84365964 1 6 C-1.5 7.625 -1.5 7.625 -4 9 C-4.33 7.68 -4.66 6.36 -5 5 C-7.31 5 -9.62 5 -12 5 C-12 4.34 -12 3.68 -12 3 C-11.30132812 2.86722656 -10.60265625 2.73445312 -9.8828125 2.59765625 C-8.51769531 2.33275391 -8.51769531 2.33275391 -7.125 2.0625 C-6.22007812 1.88847656 -5.31515625 1.71445313 -4.3828125 1.53515625 C-2.00043683 1.10036299 -2.00043683 1.10036299 0 0 Z " fill="#E56A1F" transform="translate(199,166)"/>
<path d="M0 0 C0.66 0.33 1.32 0.66 2 1 C1.375 2.875 1.375 2.875 0 5 C-3 6.1875 -3 6.1875 -6 7 C-6.99 7.495 -6.99 7.495 -8 8 C-10.3329866 8.04022391 -12.66706666 8.04320247 -15 8 C-13.42595131 4.85190262 -10.72886311 4.61322733 -7.5 3.4375 C-3.45869019 2.22382213 -3.45869019 2.22382213 0 0 Z " fill="#E48F5A" transform="translate(307,309)"/>
<path d="M0 0 C0 3.69418201 -1.28179295 5.77836178 -3 9 C-3.99 9 -4.98 9 -6 9 C-6.2784375 9.9590625 -6.2784375 9.9590625 -6.5625 10.9375 C-8 13 -8 13 -11.625 13.75 C-12.73875 13.8325 -13.8525 13.915 -15 14 C-12.64722731 11.27573689 -10.37503669 10.1858237 -7 9 C-7 8.34 -7 7.68 -7 7 C-5.37660195 5.29115995 -3.70680947 3.62553283 -2 2 C-1.34 1.34 -0.68 0.68 0 0 Z " fill="#E59563" transform="translate(324,295)"/>
<path d="M0 0 C0.66 0.33 1.32 0.66 2 1 C6.89899773 2.63299924 12.04693056 2.65102315 17 1 C17 1.66 17 2.32 17 3 C16.01 3 15.02 3 14 3 C14 3.66 14 4.32 14 5 C8.87416389 5.10251672 4.05002222 5.03590199 -1 4 C-0.67 2.68 -0.34 1.36 0 0 Z " fill="#E16D22" transform="translate(299,166)"/>
<path d="M0 0 C5.01113235 1.4317521 6.94469549 3.98445693 10 8 C8.68 8.99 7.36 9.98 6 11 C5.01 10.34 4.02 9.68 3 9 C3.33 7.68 3.66 6.36 4 5 C3.34 4.67 2.68 4.34 2 4 C2 3.34 2 2.68 2 2 C1.34 2 0.68 2 0 2 C0 1.34 0 0.68 0 0 Z " fill="#ED7E3E" transform="translate(374,132)"/>
<path d="M0 0 C2.15759845 4.3151969 2.08119479 6.29070218 2 11 C2.29357604 14.27140826 2.29357604 14.27140826 3 17 C3.66 17.33 4.32 17.66 5 18 C3.35 18 1.7 18 0 18 C0 12.06 0 6.12 0 0 Z " fill="#E59365" transform="translate(169,369)"/>
<path d="M0 0 C3.20704349 4.81056523 4.24016749 6.87154192 4.125 12.6875 C4.10695313 13.86699219 4.08890625 15.04648438 4.0703125 16.26171875 C4.03550781 17.61716797 4.03550781 17.61716797 4 19 C3.34 19 2.68 19 2 19 C1.90912109 17.82244141 1.90912109 17.82244141 1.81640625 16.62109375 C1.37179786 11.04638852 0.87875357 5.52359384 0 0 Z " fill="#E69260" transform="translate(287,240)"/>
<path d="M0 0 C2.09012603 1.80510884 3.00096499 3.0025331 4 5.625 C4.495 6.800625 4.495 6.800625 5 8 C5.99 8.33 6.98 8.66 8 9 C8 10.32 8 11.64 8 13 C6.140625 12.7734375 6.140625 12.7734375 4 12 C2.734375 10.0390625 2.734375 10.0390625 1.75 7.625 C1.41484375 6.83351563 1.0796875 6.04203125 0.734375 5.2265625 C0 3 0 3 0 0 Z " fill="#E98245" transform="translate(92,402)"/>
<path d="M0 0 C0 0.99 0 1.98 0 3 C2.31 3 4.62 3 7 3 C5 5 5 5 1.1875 5.3125 C-2.60301431 5.23655163 -4.92502424 4.30623182 -8 2 C-7.38125 1.855625 -6.7625 1.71125 -6.125 1.5625 C-0.22222222 0 -0.22222222 0 0 0 Z " fill="#543A28" transform="translate(190,164)"/>
<path d="M0 0 C0.5625 1.9375 0.5625 1.9375 1 4 C0.67 4.33 0.34 4.66 0 5 C-0.42040613 10.27951886 -0.54677703 15.22479306 2 20 C-2.22927157 16.18001278 -2.84476762 14.13444525 -3.25 8.5625 C-2.98523846 4.78964807 -2.19526181 3.01848498 0 0 Z " fill="#603A1F" transform="translate(180,145)"/>
<path d="M0 0 C0.66 0 1.32 0 2 0 C2 4 2 4 0.9375 5.6875 C-1.94916078 7.64297988 -4.56553663 7.81266563 -8 8 C-8.66 7.34 -9.32 6.68 -10 6 C-7 4 -7 4 -3.875 3 C-0.87488938 2.3313327 -0.87488938 2.3313327 0 0 Z " fill="#E45F0D" transform="translate(318,304)"/>
<path d="M0 0 C0.66 0.33 1.32 0.66 2 1 C2.13496251 3.10241603 2.23197307 5.2072961 2.3125 7.3125 C2.37050781 8.48425781 2.42851562 9.65601563 2.48828125 10.86328125 C2 14 2 14 -0.39453125 15.98046875 C-1.25433594 16.31691406 -2.11414063 16.65335938 -3 17 C-3.66 16.67 -4.32 16.34 -5 16 C-4.360625 15.34 -3.72125 14.68 -3.0625 14 C0.03196027 9.49896688 0 5.4317955 0 0 Z " fill="#DC6C29" transform="translate(205,149)"/>
<path d="M0 0 C0.99 0.33 1.98 0.66 3 1 C2.34 2.32 1.68 3.64 1 5 C0.67 5 0.34 5 0 5 C0 3.35 0 1.7 0 0 Z M-2 5 C-1.34 5.33 -0.68 5.66 0 6 C1.19150921 10.36886712 1.021829 12.95634201 -1 17 C-1.66 17 -2.32 17 -3 17 C-2.67 13.04 -2.34 9.08 -2 5 Z " fill="#E25F11" transform="translate(340,263)"/>
<path d="M0 0 C1.93627769 -0.10807131 3.87427756 -0.1856225 5.8125 -0.25 C7.43091797 -0.31960937 7.43091797 -0.31960937 9.08203125 -0.390625 C10.04496094 -0.26171875 11.00789063 -0.1328125 12 0 C12.99 1.32 13.98 2.64 15 4 C7.575 3.01 7.575 3.01 0 2 C0 1.34 0 0.68 0 0 Z " fill="#EA9263" transform="translate(276,183)"/>
<path d="M0 0 C0.33 0 0.66 0 1 0 C1.33 3.63 1.66 7.26 2 11 C0.02 12.32 -1.96 13.64 -4 15 C-4.66 14.67 -5.32 14.34 -6 14 C-5.195625 13.175 -4.39125 12.35 -3.5625 11.5 C-0.44499414 7.81887726 -0.24498936 4.73646089 0 0 Z " fill="#D56923" transform="translate(322,152)"/>
<path d="M0 0 C0.33 0 0.66 0 1 0 C2.32152306 5.88678452 1.8741103 8.86766018 -1 14 C-1.99 14.33 -2.98 14.66 -4 15 C-3.69255859 14.00419922 -3.69255859 14.00419922 -3.37890625 12.98828125 C-3.10949219 12.10527344 -2.84007812 11.22226562 -2.5625 10.3125 C-2.29566406 9.44238281 -2.02882813 8.57226562 -1.75390625 7.67578125 C-1.03655471 5.12974079 -0.482459 2.5996577 0 0 Z " fill="#E59D6D" transform="translate(337,267)"/>
<path d="M0 0 C3.16242675 2.58744007 4.08288297 5.04934204 5 9 C5.15685891 12.67353451 5.11768011 16.32576557 5 20 C4.67 20 4.34 20 4 20 C3.90912109 19.04287109 3.90912109 19.04287109 3.81640625 18.06640625 C3.73261719 17.24011719 3.64882813 16.41382813 3.5625 15.5625 C3.44068359 14.32693359 3.44068359 14.32693359 3.31640625 13.06640625 C3.21069185 11.01337975 3.21069185 11.01337975 2 10 C1.95919217 8.00041636 1.95745644 5.99954746 2 4 C1.34 4 0.68 4 0 4 C0 2.68 0 1.36 0 0 Z " fill="#F0BD97" transform="translate(384,140)"/>
<path d="M0 0 C0.66 0 1.32 0 2 0 C3.6442351 4.93270529 2.18615592 7.54024193 0 12 C-0.33 12 -0.66 12 -1 12 C-1.08159574 7.83861737 -0.98248524 4.0527516 0 0 Z " fill="#EA8248" transform="translate(405,400)"/>
<path d="M0 0 C1.5625 1.8125 1.5625 1.8125 3 4 C1.86695008 7.39914975 0.87481525 8.05254451 -2 10 C-2 9.34 -2 8.68 -2 8 C-2.66 7.67 -3.32 7.34 -4 7 C-3.39816251 4.97954558 -2.72693904 2.97888961 -2 1 C-1.34 0.67 -0.68 0.34 0 0 Z " fill="#E86E22" transform="translate(221,381)"/>
<path d="M0 0 C2 3 2 3 1.625 5.1875 C1.41875 5.785625 1.2125 6.38375 1 7 C0.01 7 -0.98 7 -2 7 C-2.66 5.68 -3.32 4.36 -4 3 C-2.68 2.01 -1.36 1.02 0 0 Z " fill="#5D5D5B" transform="translate(198,84)"/>
<path d="M0 0 C1.28222189 3.03070628 0.98589446 4.03596914 -0.25 7.1875 C-2 10 -2 10 -5 11 C-5 11.66 -5 12.32 -5 13 C-5.66 12.67 -6.32 12.34 -7 12 C-6.57847656 11.38511719 -6.15695312 10.77023437 -5.72265625 10.13671875 C-4.90087891 8.92435547 -4.90087891 8.92435547 -4.0625 7.6875 C-3.51722656 6.88699219 -2.97195313 6.08648437 -2.41015625 5.26171875 C-0.86162674 2.9741857 -0.86162674 2.9741857 0 0 Z " fill="#E69767" transform="translate(332,282)"/>
<path d="M0 0 C0 3 0 3 -2 6 C-2.66 6 -3.32 6 -4 6 C-4 6.66 -4 7.32 -4 8 C-4.66 7.67 -5.32 7.34 -6 7 C-6 5.02 -6 3.04 -6 1 C-4.02 0.67 -2.04 0.34 0 0 Z " fill="#EF955A" transform="translate(286,267)"/>
<path d="M0 0 C0 0.66 0 1.32 0 2 C-1.32 2 -2.64 2 -4 2 C-4 1.34 -4 0.68 -4 0 C-6.31 -0.33 -8.62 -0.66 -11 -1 C-11 -1.33 -11 -1.66 -11 -2 C-5.78886919 -3.01956907 -4.43295104 -2.95530069 0 0 Z " fill="#EB6618" transform="translate(121,427)"/>
<path d="M0 0 C1.65 0 3.3 0 5 0 C4.02433888 1.16959987 3.044375 2.33561177 2.0625 3.5 C1.51722656 4.1496875 0.97195313 4.799375 0.41015625 5.46875 C-0.05519531 5.9740625 -0.52054687 6.479375 -1 7 C-1.33 7 -1.66 7 -2 7 C-2 5.35 -2 3.7 -2 2 C-1.34 2 -0.68 2 0 2 C0 1.34 0 0.68 0 0 Z " fill="#EA8F59" transform="translate(396,417)"/>
<path d="M0 0 C-3.41338353 3.14031285 -6.41462451 3.74525692 -11 4 C-11.66 3.34 -12.32 2.68 -13 2 C-8.46298506 0.54815522 -4.81938524 -0.23509196 0 0 Z " fill="#E8854D" transform="translate(277,277)"/>
<path d="M0 0 C0.33 0.66 0.66 1.32 1 2 C-5.27 1.67 -11.54 1.34 -18 1 C-18 0.67 -18 0.34 -18 0 C-15.56288386 -0.19484938 -13.12562602 -0.38115178 -10.6875 -0.5625 C-9.99720703 -0.61857422 -9.30691406 -0.67464844 -8.59570312 -0.73242188 C-5.37487726 -0.96581505 -3.09672655 -1.03224218 0 0 Z " fill="#ADACA8" transform="translate(261,77)"/>
<path d="M0 0 C2.1202151 3.18032265 2.2495865 3.54567399 1.75 7.0625 C1.66234375 7.75472656 1.5746875 8.44695312 1.484375 9.16015625 C1 11 1 11 -1 13 C-0.67 8.71 -0.34 4.42 0 0 Z " fill="#5B3D26" transform="translate(204,149)"/>
<path d="M0 0 C1.45922693 0.11409593 2.91740598 0.24165544 4.375 0.375 C5.59316406 0.47941406 5.59316406 0.47941406 6.8359375 0.5859375 C9 1 9 1 11 3 C10.34 3 9.68 3 9 3 C9 3.66 9 4.32 9 5 C5.54074837 3.7508258 2.85306797 2.32472205 0 0 Z " fill="#EA8547" transform="translate(304,192)"/>
<path d="M0 0 C1.0625 1.875 1.0625 1.875 2 4 C1.67 4.66 1.34 5.32 1 6 C0.01 6 -0.98 6 -2 6 C-2 7.98 -2 9.96 -2 12 C-2.33 12 -2.66 12 -3 12 C-3.2954439 6.97745369 -2.98514628 4.10457614 0 0 Z " fill="#583729" transform="translate(297,145)"/>
<path d="M0 0 C1.32 0 2.64 0 4 0 C4 1.32 4 2.64 4 4 C2.02 4.66 0.04 5.32 -2 6 C-1.49396008 3.83125748 -1.00016187 2.00032373 0 0 Z " fill="#394041" transform="translate(181,147)"/>
<path d="M0 0 C-0.625 2.4375 -0.625 2.4375 -2 5 C-5.125 5.8125 -5.125 5.8125 -8 6 C-3.38461538 0 -3.38461538 0 0 0 Z " fill="#E98E55" transform="translate(125,132)"/>
<path d="M0 0 C1.32 0.33 2.64 0.66 4 1 C3.01 1 2.02 1 1 1 C1.22816406 1.61488281 1.45632812 2.22976562 1.69140625 2.86328125 C1.97886719 3.67152344 2.26632813 4.47976562 2.5625 5.3125 C2.85253906 6.11300781 3.14257812 6.91351563 3.44140625 7.73828125 C4 10 4 10 3 13 C-0.36055646 8.51925805 -0.27429625 5.39449293 0 0 Z " fill="#E16D1D" transform="translate(201,136)"/>
<path d="M0 0 C0.33 0.66 0.66 1.32 1 2 C-2.3 2.66 -5.6 3.32 -9 4 C-9 3.34 -9 2.68 -9 2 C-5.86501708 0.14223235 -3.62528568 -0.20140476 0 0 Z " fill="#DE8758" transform="translate(292,317)"/>
<path d="M0 0 C0.33 0.66 0.66 1.32 1 2 C1.99 2.33 2.98 2.66 4 3 C4 5.64 4 8.28 4 11 C1.55160412 7.32740617 0 4.45351799 0 0 Z " fill="#EAA675" transform="translate(333,221)"/>
<path d="M0 0 C2.31 0.33 4.62 0.66 7 1 C7 1.66 7 2.32 7 3 C4.36 3.33 1.72 3.66 -1 4 C-0.67 2.68 -0.34 1.36 0 0 Z " fill="#413E37" transform="translate(187,161)"/>
<path d="M0 0 C1 4 1 4 0 7 C-0.66 7 -1.32 7 -2 7 C-2 8.32 -2 9.64 -2 11 C-2.66 10.67 -3.32 10.34 -4 10 C-2.68 6.7 -1.36 3.4 0 0 Z " fill="#DE6018" transform="translate(334,281)"/>
<path d="M0 0 C0.94875 0.04125 1.8975 0.0825 2.875 0.125 C2.545 1.115 2.215 2.105 1.875 3.125 C-0.435 2.795 -2.745 2.465 -5.125 2.125 C-3.125 0.125 -3.125 0.125 0 0 Z " fill="#EB9352" transform="translate(130.125,129.875)"/>
<path d="M0 0 C0.99 0 1.98 0 3 0 C3 0.99 3 1.98 3 3 C2.34 3.66 1.68 4.32 1 5 C0.67 5.99 0.34 6.98 0 8 C-0.33 8 -0.66 8 -1 8 C-1.04241723 5.66705225 -1.04092937 3.33297433 -1 1 C-0.67 0.67 -0.34 0.34 0 0 Z " fill="#EA5E0E" transform="translate(222,324)"/>
<path d="M0 0 C-1.28965176 1.37562854 -2.62689293 2.70766393 -4 4 C-4.66 4 -5.32 4 -6 4 C-6 2.68 -6 1.36 -6 0 C-3.50907189 -1.24546405 -2.58919267 -0.7767578 0 0 Z " fill="#4D372D" transform="translate(203,163)"/>
<path d="M0 0 C0.625 1.8125 0.625 1.8125 1 4 C-1 7 -1 7 -4 9 C-2.94124926 5.59687262 -1.99097846 2.98646769 0 0 Z " fill="#ED9864" transform="translate(116,138)"/>
<path d="M0 0 C2.875 -0.125 2.875 -0.125 6 0 C6.66 0.66 7.32 1.32 8 2 C5.69 2.33 3.38 2.66 1 3 C0.67 2.01 0.34 1.02 0 0 Z " fill="#EC9156" transform="translate(366,130)"/>
<path d="M0 0 C1.32 0.99 2.64 1.98 4 3 C3.67 4.65 3.34 6.3 3 8 C2.67 8 2.34 8 2 8 C2 6.35 2 4.7 2 3 C0.68 2.67 -0.64 2.34 -2 2 C-1.34 1.34 -0.68 0.68 0 0 Z " fill="#ED7933" transform="translate(168,181)"/>
<path d="M0 0 C1 3 1 3 1.5 5.0625 C1.94398007 7.06256771 1.94398007 7.06256771 3 9 C1.0625 8.3125 1.0625 8.3125 -1 7 C-1.875 4.5 -1.875 4.5 -2 2 C-1.34 1.34 -0.68 0.68 0 0 Z " fill="#47392A" transform="translate(297,155)"/>
<path d="M0 0 C2.4375 0.75 2.4375 0.75 5 2 C5.8125 4.125 5.8125 4.125 6 6 C1.25 4.125 1.25 4.125 -1 3 C-0.67 2.01 -0.34 1.02 0 0 Z " fill="#787775" transform="translate(273,80)"/>
</svg>
